<?xml version="1.0" encoding="utf-8"?>
<!-- Generator: Adobe Illustrator 19.2.1, SVG Export Plug-In . SVG Version: 6.00 Build 0)  -->
<svg version="1.1" id="Layer_1" xmlns="http://www.w3.org/2000/svg" xmlns:xlink="http://www.w3.org/1999/xlink" x="0px" y="0px"
	 viewBox="0 0 157 133" style="enable-background:new 0 0 157 133;" xml:space="preserve">
<style type="text/css">
	.st0{fill:none;stroke:#000000;stroke-width:2;stroke-miterlimit:10;}
	.st1{fill:#FFFFFF;}
</style>
<g>
	<g>
		<path class="st0" d="M102,36.8c5-5,25.3-24.8,31.8-20.8c6.5,4-2.1,30.6-7.8,44.6"/>
		<path class="st0" d="M122.5,54.7c4.6-11.4,10.2-27.8,6.3-30.2c-3.6-2.2-14.6,7.8-21.3,14.4"/>
	</g>
	<g>
		<path class="st0" d="M53.2,36.8c-5-5-25.3-24.8-31.9-20.8c-6.5,4,2,30.6,7.8,44.6"/>
		<path class="st0" d="M32.6,54.7C28,43.2,22.4,26.9,26.3,24.5c3.7-2.3,15.4,8.6,21.9,15.1"/>
	</g>
</g>
<path class="st0" d="M119,50.1c-17.1-19.7-41.5-19.6-41.5-19.6s-24.4-0.1-41.5,19.6C17,72.1,14,119.8,77.6,119.8
	S138.2,72.1,119,50.1z"/>
<g>
	<g>
		<g>
			<path d="M88.2,82.1c20.7,9.8,23.4-11.2,23.4-11.2C91.7,63,88.2,82.1,88.2,82.1z M89.9,81.3c0,0,3-16.2,19.9-9.5
				C109.8,71.7,107.6,89.6,89.9,81.3z"/>
			<path d="M99.8,69.6c0,0-6.1,7.2,0.5,14.4C100.3,84,105.6,76.3,99.8,69.6z"/>
		</g>
		<path class="st1" d="M103.3,73.4c0,0.9-0.8,1.7-1.7,1.7s-1.8-0.8-1.8-1.7s0.8-1.7,1.8-1.7C102.6,71.7,103.3,72.4,103.3,73.4z"/>
	</g>
	<g>
		<g>
			<path d="M43.6,70.8c0,0,2.7,20.9,23.4,11.2C67,82.1,63.5,63,43.6,70.8z M45.3,71.7c16.9-6.7,19.9,9.5,19.9,9.5
				C47.6,89.6,45.3,71.7,45.3,71.7z"/>
			<path d="M55.3,69.6c0,0,6.1,7.2-0.5,14.4C54.9,84,49.5,76.3,55.3,69.6z"/>
		</g>
		<ellipse class="st1" cx="53.5" cy="73.4" rx="1.7" ry="1.7"/>
	</g>
</g>
<g>
	<path d="M73.7,106.9c0,0,3.4,3.4,7.8,0l-3.9-6.7L73.7,106.9z"/>
	<g>
		<path d="M98.4,98.3c-0.1,0.4-3.1,9.1-10.8,9.1c-7,0-8.9-7.5-9.2-9.1v0l0,0c0-0.1-0.1-0.2-0.1-0.3l-0.8,0.1l-0.8-0.1
			c0,0,0,0.1-0.1,0.3l0,0v0c-0.3,1.6-2.2,9.1-9.2,9.1c-7.7,0-10.7-8.7-10.8-9.1l-0.1,0c0,0.1,1.7,10.8,10.9,10.8
			c6,0,8.8-4.6,10.1-7.8c1.3,3.2,4.1,7.8,10.1,7.8C96.8,109,98.5,98.4,98.4,98.3L98.4,98.3z"/>
		<path d="M84.4,93.4c-0.5-1.9-6.8-1.9-6.8-1.9l0,0l0,0l0,0l0,0c0,0-6.3,0-6.8,1.9s1.7,2,3.4,2.9c1.8,0.9,1.3,3.2,3.4,3.2l0,0l0,0
			l0,0l0,0c2.1,0,1.7-2.3,3.4-3.2C82.8,95.4,84.9,95.3,84.4,93.4z"/>
		<g>
			<g>
				<ellipse cx="85.8" cy="99.3" rx="1.1" ry="0.9"/>
				<ellipse cx="89.2" cy="103.2" rx="1.1" ry="0.9"/>
				<ellipse cx="92.1" cy="99.3" rx="1.1" ry="0.9"/>
			</g>
			<g>
				<g>
					<path d="M86.3,99.5c17.5-9.3,39.5-11.3,58.8-8.3c0.4,0.1,0.5-0.6,0.1-0.6c-19.4-3-41.6-1-59.2,8.4C85.6,99.2,86,99.7,86.3,99.5
						L86.3,99.5z"/>
				</g>
				<g>
					<path d="M92.3,99.7c16-5.8,36.6-1.6,52.4,2c0.4,0.1,0.5-0.5,0.1-0.6c-15.9-3.6-36.7-7.8-52.8-2C91.7,99.3,91.9,99.9,92.3,99.7
						L92.3,99.7z"/>
				</g>
				<g>
					<path d="M89.2,103.6c17.3-1.3,35.5,5.6,50.2,14c0.4,0.2,0.6-0.4,0.3-0.6c-14.8-8.5-33.1-15.4-50.5-14.1
						C88.8,102.9,88.8,103.6,89.2,103.6L89.2,103.6z"/>
				</g>
			</g>
		</g>
		<g>
			<g>
				<ellipse cx="68.6" cy="99.3" rx="1.1" ry="0.9"/>
				<ellipse cx="65.2" cy="103.2" rx="1.1" ry="0.9"/>
				<ellipse cx="62.4" cy="99.3" rx="1.1" ry="0.9"/>
			</g>
			<g>
				<g>
					<path d="M68.1,99.5c-17.5-9.3-39.5-11.3-58.8-8.3c-0.4,0.1-0.5-0.6-0.1-0.6c19.4-3,41.6-1,59.2,8.4
						C68.8,99.2,68.5,99.7,68.1,99.5L68.1,99.5z"/>
				</g>
				<g>
					<path d="M62.1,99.7c-16-5.8-36.7-1.6-52.5,2c-0.4,0.1-0.5-0.5-0.1-0.6c15.9-3.6,36.7-7.8,52.8-2C62.7,99.3,62.5,99.9,62.1,99.7
						L62.1,99.7z"/>
				</g>
				<g>
					<path d="M65.2,103.6c-17.3-1.3-35.5,5.6-50.2,14c-0.4,0.2-0.6-0.4-0.3-0.6c14.8-8.5,33.1-15.4,50.5-14.1
						C65.7,103,65.6,103.6,65.2,103.6L65.2,103.6z"/>
				</g>
			</g>
		</g>
	</g>
</g>
</svg>
