<?xml version="1.0" encoding="utf-8"?>
<!-- Generator: Adobe Illustrator 19.2.1, SVG Export Plug-In . SVG Version: 6.00 Build 0)  -->
<svg version="1.1" id="Layer_1" xmlns="http://www.w3.org/2000/svg" xmlns:xlink="http://www.w3.org/1999/xlink" x="0px" y="0px"
	 viewBox="0 0 640 920" enable-background="new 0 0 640 920" xml:space="preserve">
<g>
	<g>
		<path fill="none" stroke="#000000" stroke-width="8" stroke-miterlimit="10" d="M421.1,277.4c20-20.1,101.3-99.3,127.4-83.3
			c25.9,15.9-8.2,122.5-31.2,178.5"/>
		<path fill="none" stroke="#000000" stroke-width="8" stroke-miterlimit="10" d="M503.4,348.7c18.5-45.8,40.7-111.1,25.1-120.6
			c-14.4-8.8-58.5,31.3-85.1,57.7"/>
	</g>
	<g>
		<path fill="none" stroke="#000000" stroke-width="8" stroke-miterlimit="10" d="M226,277.4c-20-20.1-101.3-99.3-127.4-83.3
			c-25.9,15.9,8.2,122.5,31.2,178.5"/>
		<path fill="none" stroke="#000000" stroke-width="8" stroke-miterlimit="10" d="M143.7,348.7c-18.5-45.8-40.7-111.1-25.1-120.6
			c14.9-9.1,61.6,34.2,87.8,60.4"/>
	</g>
</g>
<path fill="none" stroke="#000000" stroke-width="8" stroke-miterlimit="10" d="M489.4,330.2c-68.3-78.7-165.8-78.4-165.8-78.4
	s-97.5-0.3-165.8,78.4c-76.5,88.1-88.5,279,165.8,279C577.9,609.2,565.9,418.3,489.4,330.2z"/>
<g>
	<g>
		<g>
			<path d="M365.9,458.2c82.9,39,93.7-44.8,93.7-44.8C380,381.9,365.9,458.2,365.9,458.2z M372.9,455c0,0,12-64.9,79.7-38.1
				C452.6,416.9,443.5,488.2,372.9,455z"/>
			<path d="M412.5,408.2c0,0-24.3,28.9,1.9,57.8C414.3,466.1,435.7,435.4,412.5,408.2z"/>
		</g>
		<path fill="#FFFFFF" d="M426.6,423.6c0,3.8-3.1,6.9-6.9,6.9c-3.8,0-7-3.1-7-6.9c0-3.8,3.1-6.9,7-6.9
			C423.5,416.6,426.6,419.7,426.6,423.6z"/>
	</g>
	<g>
		<g>
			<path d="M187.5,413.4c0,0,10.8,83.7,93.7,44.8C281.2,458.2,267.1,381.9,187.5,413.4z M194.5,416.9c67.8-26.8,79.7,38.1,79.7,38.1
				C203.6,488.2,194.5,416.9,194.5,416.9z"/>
			<path d="M234.6,408.2c0,0,24.3,28.9-1.9,57.8C232.8,466.1,211.4,435.4,234.6,408.2z"/>
		</g>
		<ellipse fill="#FFFFFF" cx="227.4" cy="423.6" rx="6.9" ry="6.9"/>
	</g>
</g>
<g>
	<path d="M308,557.7c0,0,13.8,13.4,31.2,0l-15.6-26.9L308,557.7z"/>
	<g>
		<path d="M406.9,523c-0.2,1.5-12.4,36.3-43.1,36.3c-28.1,0-35.5-30.1-36.8-36.4c0,0,0-0.1,0-0.1l0,0c-0.1-0.5-0.2-0.9-0.2-1
			l-3.3,0.5l-3.3-0.5c0,0.1-0.1,0.5-0.2,1l0,0c0,0,0,0.1,0,0.1c-1.3,6.4-8.7,36.4-36.8,36.4c-30.8,0-42.7-34.8-43-36.3l-0.5,0.1
			c0.1,0.4,6.8,43,43.5,43c24,0,35.3-18.4,40.3-31.3c5,12.8,16.3,31.3,40.3,31.3c36.7,0,43.4-42.6,43.5-43L406.9,523z"/>
		<path d="M350.9,503.8c-2.1-7.5-27.3-7.5-27.4-7.5l0,0l0,0l0,0l0,0c-0.1,0-25.3,0-27.4,7.5c-2.1,7.5,6.6,7.9,13.7,11.6
			c7,3.7,5.4,12.8,13.7,12.8l0,0l0,0l0,0l0,0c8.3,0,6.6-9.1,13.7-12.8C344.3,511.7,353,511.2,350.9,503.8z"/>
		<g>
			<g>
				<ellipse cx="356.6" cy="527" rx="4.5" ry="3.7"/>
				<ellipse cx="370.2" cy="542.7" rx="4.5" ry="3.7"/>
				<ellipse cx="381.5" cy="527" rx="4.5" ry="3.7"/>
			</g>
			<g>
				<g>
					<path d="M358.5,528.1c70-37.1,158-45,235-33.1c1.6,0.2,2.1-2.2,0.6-2.4c-77.6-12-166.3-4-236.8,33.4
						C355.8,526.8,357.1,528.9,358.5,528.1L358.5,528.1z"/>
				</g>
				<g>
					<path d="M382.5,528.9c64-23.1,146.6-6.3,209.8,8.1c1.6,0.4,2.1-2.1,0.6-2.4c-63.6-14.5-146.8-31.2-211.1-8.1
						C380.2,527.1,381,529.5,382.5,528.9L382.5,528.9z"/>
				</g>
				<g>
					<path d="M370.1,544.2c69.2-5,142.2,22.4,200.8,56.1c1.4,0.8,2.6-1.4,1.2-2.2c-59.1-34-132.5-61.5-202.1-56.4
						C368.4,541.8,368.5,544.3,370.1,544.2L370.1,544.2z"/>
				</g>
			</g>
		</g>
		<g>
			<g>
				<ellipse cx="287.7" cy="527" rx="4.5" ry="3.7"/>
				<ellipse cx="274.1" cy="542.7" rx="4.5" ry="3.7"/>
				<ellipse cx="262.8" cy="527" rx="4.5" ry="3.7"/>
			</g>
			<g>
				<g>
					<path d="M285.7,528.1c-70-37.1-158-45-235-33.1c-1.6,0.2-2.1-2.2-0.6-2.4c77.6-12,166.3-4,236.8,33.4
						C288.5,526.8,287.2,528.9,285.7,528.1L285.7,528.1z"/>
				</g>
				<g>
					<path d="M261.8,528.9c-64-23.1-146.6-6.3-209.8,8.1c-1.6,0.4-2.1-2.1-0.6-2.4c63.6-14.5,146.8-31.2,211.1-8.1
						C264,527.1,263.3,529.5,261.8,528.9L261.8,528.9z"/>
				</g>
				<g>
					<path d="M274.2,544.2c-69.2-5-142.2,22.4-200.8,56.1c-1.4,0.8-2.6-1.4-1.2-2.2c59.1-34,132.5-61.5,202.1-56.4
						C275.9,541.9,275.8,544.3,274.2,544.2L274.2,544.2z"/>
				</g>
			</g>
		</g>
	</g>
</g>
</svg>
