<svg id="Layer_1" data-name="Layer 1" xmlns="http://www.w3.org/2000/svg" viewBox="0 0 545.8 425.22"><defs><style>.cls-1{fill:none;stroke:#000;stroke-miterlimit:10;stroke-width:8px;}.cls-2{fill:#fff;}</style></defs><title>catface</title><path class="cls-1" d="M421.1,232.4c20-20.1,101.3-99.3,127.4-83.3,25.9,15.9-8.2,122.5-31.2,178.5" transform="translate(-49.2 -142.98)"/><path class="cls-1" d="M503.4,303.7c18.5-45.8,40.7-111.1,25.1-120.6-14.4-8.8-58.5,31.3-85.1,57.7" transform="translate(-49.2 -142.98)"/><path class="cls-1" d="M226,232.4c-20-20.1-101.3-99.3-127.4-83.3-25.9,15.9,8.2,122.5,31.2,178.5" transform="translate(-49.2 -142.98)"/><path class="cls-1" d="M143.7,303.7c-18.5-45.8-40.7-111.1-25.1-120.6,14.9-9.1,61.6,34.2,87.8,60.4" transform="translate(-49.2 -142.98)"/><path class="cls-1" d="M489.4,285.2c-68.3-78.7-165.8-78.4-165.8-78.4s-97.5-.3-165.8,78.4c-76.5,88.1-88.5,279,165.8,279S565.9,373.3,489.4,285.2Z" transform="translate(-49.2 -142.98)"/><path d="M365.9,413.2c82.9,39,93.7-44.8,93.7-44.8C380,336.9,365.9,413.2,365.9,413.2Zm7-3.2s12-64.9,79.7-38.1C452.6,371.9,443.5,443.2,372.9,410Z" transform="translate(-49.2 -142.98)"/><path d="M412.5,363.2s-24.3,28.9,1.9,57.8C414.3,421.1,435.7,390.4,412.5,363.2Z" transform="translate(-49.2 -142.98)"/><path class="cls-2" d="M426.6,378.6a6.91,6.91,0,0,1-6.9,6.9,6.9,6.9,0,1,1,0-13.8A6.79,6.79,0,0,1,426.6,378.6Z" transform="translate(-49.2 -142.98)"/><path d="M187.5,368.4s10.8,83.7,93.7,44.8C281.2,413.2,267.1,336.9,187.5,368.4Zm7,3.5c67.8-26.8,79.7,38.1,79.7,38.1C203.6,443.2,194.5,371.9,194.5,371.9Z" transform="translate(-49.2 -142.98)"/><path d="M234.6,363.2s24.3,28.9-1.9,57.8C232.8,421.1,211.4,390.4,234.6,363.2Z" transform="translate(-49.2 -142.98)"/><circle class="cls-2" cx="178.2" cy="235.62" r="6.9"/><path d="M308,512.7s13.8,13.4,31.2,0l-15.6-26.9Z" transform="translate(-49.2 -142.98)"/><path d="M406.9,478c-0.2,1.5-12.4,36.3-43.1,36.3-28.1,0-35.5-30.1-36.8-36.4v-0.1h0c-0.1-.5-0.2-0.9-0.2-1l-3.3.5-3.3-.5c0,0.1-.1.5-0.2,1h0v0.1c-1.3,6.4-8.7,36.4-36.8,36.4-30.8,0-42.7-34.8-43-36.3l-0.5.1c0.1,0.4,6.8,43,43.5,43,24,0,35.3-18.4,40.3-31.3,5,12.8,16.3,31.3,40.3,31.3,36.7,0,43.4-42.6,43.5-43Z" transform="translate(-49.2 -142.98)"/><path d="M350.9,458.8c-2.1-7.5-27.3-7.5-27.4-7.5h0c-0.1,0-25.3,0-27.4,7.5s6.6,7.9,13.7,11.6,5.4,12.8,13.7,12.8h0c8.3,0,6.6-9.1,13.7-12.8S353,466.2,350.9,458.8Z" transform="translate(-49.2 -142.98)"/><ellipse cx="307.4" cy="339.02" rx="4.5" ry="3.7"/><ellipse cx="321" cy="354.72" rx="4.5" ry="3.7"/><ellipse cx="332.3" cy="339.02" rx="4.5" ry="3.7"/><path d="M358.5,483.1c70-37.1,158-45,235-33.1,1.6,0.2,2.1-2.2.6-2.4-77.6-12-166.3-4-236.8,33.4a1.21,1.21,0,1,0,1.2,2.1h0Z" transform="translate(-49.2 -142.98)"/><path d="M382.5,483.9c64-23.1,146.6-6.3,209.8,8.1a1.24,1.24,0,0,0,.6-2.4c-63.6-14.5-146.8-31.2-211.1-8.1-1.6.6-.8,3,0.7,2.4h0Z" transform="translate(-49.2 -142.98)"/><path d="M370.1,499.2c69.2-5,142.2,22.4,200.8,56.1a1.25,1.25,0,0,0,1.2-2.2c-59.1-34-132.5-61.5-202.1-56.4a1.25,1.25,0,0,0,.1,2.5h0Z" transform="translate(-49.2 -142.98)"/><ellipse cx="238.5" cy="339.02" rx="4.5" ry="3.7"/><ellipse cx="224.9" cy="354.72" rx="4.5" ry="3.7"/><ellipse cx="213.6" cy="339.02" rx="4.5" ry="3.7"/><path d="M285.7,483.1c-70-37.1-158-45-235-33.1-1.6.2-2.1-2.2-.6-2.4,77.6-12,166.3-4,236.8,33.4a1.21,1.21,0,1,1-1.2,2.1h0Z" transform="translate(-49.2 -142.98)"/><path d="M261.8,483.9c-64-23.1-146.6-6.3-209.8,8.1a1.24,1.24,0,0,1-.6-2.4c63.6-14.5,146.8-31.2,211.1-8.1,1.5,0.6.8,3-.7,2.4h0Z" transform="translate(-49.2 -142.98)"/><path d="M274.2,499.2c-69.2-5-142.2,22.4-200.8,56.1a1.25,1.25,0,0,1-1.2-2.2c59.1-34,132.5-61.5,202.1-56.4,1.6,0.2,1.5,2.6-.1,2.5h0Z" transform="translate(-49.2 -142.98)"/></svg>