<?xml version="1.0" encoding="utf-8"?>
<!-- Generator: Adobe Illustrator 19.2.1, SVG Export Plug-In . SVG Version: 6.00 Build 0)  -->
<svg version="1.1" id="Layer_1" xmlns="http://www.w3.org/2000/svg" xmlns:xlink="http://www.w3.org/1999/xlink" x="0px" y="0px"
	 viewBox="0 0 640 920" enable-background="new 0 0 640 920" xml:space="preserve">
<g>
	<g>
		<path d="M559.4,384.7c-10.4,11.5-21.9,25.9-37,31.2c1.5,0.6,3,1.2,4.5,1.8c-1.4-3.3-5.3-5.7-8.1-7.9c-3.9-3-8-5.7-12.3-8.1
			c-8-4.3-16.7-7.4-25.6-9.2c-18-3.6-36.4-2.4-54.5,0.4c-37.4,5.8-73.9,20.2-112,21.4c-8.6,0.3-17.2-0.2-25.5-2.2
			c-2-0.5-3.9-1-5.9-1.6c-2.2-0.7,0.1,0.5-1.2-0.5c0.9,0.7-0.2-0.3-0.5-0.5c-0.5-0.5-0.4-0.4-1-1.5c-4.5-7.7-6.4-17.3-8.2-26
			c-6.5-30.1-9.8-60.9-13.1-91.5c-3.1-28.7-5.2-57.5-8.7-86.2c-0.2-1.8-1.1-3.4-2.9-3.9c-1.8-0.5-3.5-1-5.3-1.4
			c-0.4,2.6-0.7,5.2-1.1,7.9c17.4,0.6,34.8-5.9,49.5-14.9c13.6-8.3,26.9-19.9,32.3-35.3c0.5-1.5-0.3-3.8-1.8-4.5
			c-34.8-16.7-74.3,4.7-100.6,27.6c1.6-0.2,3.2-0.4,4.8-0.6c-7.5-5.8,5.7-22.5,8.9-27.5c4.6-7.3,14.2-19.7,8.3-28.6
			c-2.6-3.9-8-6-12.5-5c-4.4,1-7.7,4.4-10.1,8c-6.5,9.3-9.3,20.7-14.6,30.6c-1.5,2.8-4,7.8-7.3,8.6c-1,0.2-2.3-0.2-3.5-1
			c0.5,0.4,0.3,0.4,0.2-0.1c0,0.3,0-1.3,0-1.7c0.6-5,3.2-9.9,5.2-14.4c2.6-5.7,5.4-11.2,7.7-17c2.9-7,7.7-20.6-2.9-23.7
			c-13-3.8-20.8,9.7-24.7,19.7c-3,7.6-5,15.5-8.1,23.1c-2.2,5.3-5.4,12.3-12.4,10c-9.4-3.2-15.5-12.6-24.1-17.3
			c-11.9-6.5-27.6-7-40.8-8c-2-0.2-4.3,2-4,4c2.6,20.3,15.3,40.2,33.9,49.3c0.3-2.4,0.6-4.9,1-7.3c-19.6,4.2-30.7,25.8-43.5,39.2
			c-7.3,7.7-15.8,11.8-24.9,16.9c-7.7,4.4-15.4,9.4-20.3,17c-10.7,16.4-3.3,40.1,12,50.7c16.8,11.7,38.5,8.9,56.6,2.5
			c24.9-8.7,47.6-21.4,70.3-34.6c-2-1.2-4-2.3-6-3.5c2.8,55,8.6,109.7,14.8,164.3c3.1,27.7,6.3,55.4,9.2,83.2
			c1.6,15.4,3.2,30.8,3.6,46.3c0.8,26.4,0.8,52.7,3.2,79c2.2,24.1,5.2,51,17.9,72.1c5.4,9,13.3,16.9,23.8,19.6
			c12.5,3.2,25.4-1.1,36.4-6.9c1.2-0.6,2-2.1,2-3.5c0-9.5-1.3-19-2.2-28.4c-1.3-13.3-2.5-26.6-3.1-39.9c-0.5-11.8-0.9-24,1.3-35.6
			c0.7-3.9,1.7-8.3,4.1-11.5c3-3.9,9.5-5.9,13.9-7.5c6.9-2.6,17.3-5.6,21.1,3c3.5,7.9,2.1,18.2,1.4,26.5
			c-2.1,23.6-4.7,48.8,2.4,71.8c2.9,9.4,8.5,18,18.4,20.8c12.1,3.4,25.7-1.6,36.9-6c1.6-0.6,3-2,2.9-3.9c-1.1-19.5,0-39.6,3.2-58.9
			c2.3-14.5,5.9-29.5,13.3-42.3c3.1-5.3,6.9-10.3,11.9-13.9c6.7-4.8,15.1-6.1,23-7.4c15.6-2.5,34-2.7,46.2,8.9
			c10.4,9.9,14.2,24.9,17.3,38.4c3.8,16.8,6.5,33.7,9.8,50.5c2.6,13.2,8.2,25.5,23.5,25.6c4.1,0,8.2-0.7,12.1-1.7
			c3.2-0.8,7.3-1.5,10.1-3.4c2.3-1.5,3.5-4,4.4-6.4c2.6-7,2.9-15.1,3.3-22.5c1.5-26.4-0.2-53.1-1.8-79.4
			c-3.1-48.9-7.8-97.7-13.3-146.4c-0.1-1.2-0.2-2.4-0.4-3.6c-0.3-1.8-1.1-3.4-1.8-5.1c-0.3-0.7-0.8-1.6-1-2.4
			c-0.3-1.1-0.3,1.6,0.2-1c0.5-2.5,1.3-4.6,2.8-6.7c4.8-6.7,12.3-12,18.2-17.8c5.3-5.1,10.6-10.2,15.8-15.4c6-5.9,12-11.9,17.3-18.5
			c3.8-4.7,6.2-8.9,4.7-15.2c-3.7-15.3-21.2,0.4-26.5,5.6C566.4,377.1,563,381,559.4,384.7c-3.6,3.7,2,9.3,5.7,5.7
			c7.5-7.6,14.5-16.2,23.8-20.9c0.4-0.2-0.2-0.7-0.2-0.1c-0.1,1.2,0.5,2.5,0.2,3.8c-0.3,1.3-2,3.5-3.3,5c-4.9,6-10.5,11.5-16,17
			c-5.3,5.3-10.7,10.5-16.1,15.8c-5.8,5.7-12.6,10.8-17.8,17.1c-2.8,3.3-5,7-5.7,11.3c-0.7,4.1,0.5,6.9,2.1,10.5
			c0.7,1.6,0.4,3,0.4,0.1c0,0.1,0.1,0.2,0,0.3c-0.1,0.4,0.1,1.2,0.2,1.6c4.4,45.6,9.6,91,12.7,136.7c1.9,27.2,3.6,54.5,2.9,81.8
			c-0.2,8.5-0.4,17.2-2.2,25.3c-0.7,3.1-1.3,4-2.2,6.1c0.4-0.9,0.2-0.2-0.2,0.1c1-0.9,0.5-0.3,0.2-0.2c-0.1,0-0.1,0.1-0.2,0.1
			c1.1-0.5,0.8-0.4-0.9,0.2c-4.9,1.5-9.8,3.1-15,3.5c-5.6,0.3-10.4-0.9-13.4-6c-3.4-5.8-4.3-13.2-5.4-19.8
			c-2.8-16.8-5.9-33.8-10.2-50.3c-3.3-12.9-8.1-26.5-17.9-36c-11.5-11-27.7-13.5-43.1-12.3c-15.7,1.2-32.1,3.9-43.2,16
			c-9.4,10.3-14.5,24-18,37.2c-6.2,23.9-7.8,49.2-7.2,73.8c0,1.5,0.1,3,0.2,4.5c1-1.3,2-2.6,2.9-3.9c-9.7,3.9-22.3,9.1-33,5.9
			c-8.7-2.6-12-11.9-13.8-20c-3.1-13.7-3.5-28.7-2.8-42.7c0.4-10,2.1-19.9,2.6-29.8c0.4-8.4,0.5-18.6-4.7-25.7
			c-5.9-8.2-16.5-7.7-25.3-5c-10.5,3.3-20.9,7.5-24.9,18.3c-3.8,10.2-3.9,22-3.9,32.8c0,15.5,1.4,31,2.8,46.5
			c1.1,11.3,2.7,22.8,2.8,34.2c0.7-1.2,1.3-2.3,2-3.5c-8.9,4.6-19.5,8.6-29.6,6.2c-8.2-1.9-14.4-7.9-18.9-14.8
			c-12.5-19.7-15.3-45.6-17.5-68.3c-2.4-25.6-2.5-51.2-3.2-76.9c-1-39.8-6.9-79.6-11.4-119.1c-6.7-59.1-13.3-118.3-16.3-177.8
			c-0.1-3-3.3-5-6-3.5c-18.3,10.6-36.4,21.1-56,29.1c-16.9,6.9-35.4,13.7-53.7,7.6c-16.8-5.6-28.7-27-18.9-43.5
			c8.8-14.7,28.8-18.3,40.9-29.5c7.8-7.3,14-16,21-24c6.1-7.1,13.1-14.7,22.6-16.7c3.3-0.7,4-5.8,1-7.3
			c-15.9-7.8-27.7-24.8-29.9-42.4c-1.3,1.3-2.7,2.7-4,4c12,0.9,27,1.2,37.7,7.4c7.6,4.4,13.1,11.8,21,15.8
			c6.1,3.1,13.2,3.7,18.6-1.2c4.4-4,6.7-9.9,8.7-15.4c2.5-6.7,4.4-13.7,7.1-20.4c1.9-4.8,4.6-11.3,9.6-13.6c1.5-0.7,3.7-1,5.2-0.5
			c0.6,0.2,0.7,0.5,0.8,1.7c0.3,4.5-2.3,9.6-4,13.6c-4.3,10-11.5,20.6-12.6,31.7c-0.9,9.4,9.5,14.3,17,9.4
			c8.4-5.5,11.9-17.8,15.6-26.5c2-4.7,7.7-21.6,14.8-18.7c7.8,3.3-8.1,23.4-10.5,27.4c-5.9,9.7-13.8,23.8-2.3,32.6
			c1.5,1.1,3.6,0.4,4.8-0.6c23.3-20.2,59.9-41.3,90.9-26.3c-0.6-1.5-1.2-3-1.8-4.5c-4.8,13.7-17.8,24.1-29.9,31.3
			c-13.2,7.9-28.6,13.6-44.2,13.1c-4.5-0.2-5.4,6.7-1.1,7.9c1.8,0.5,3.5,1,5.3,1.4c-1-1.3-2-2.6-2.9-3.9c7,56.7,9.6,114,20.2,170.3
			c2,10.7,4.2,21.8,8.3,31.9c1.3,3.1,2.7,6.4,5.1,8.8c3.6,3.6,9.8,4.4,14.6,5.3c36.7,6.8,74.7-6.5,110.1-14.5
			c21-4.8,42.5-8.9,64.1-7.6c10.2,0.6,20.3,2.6,29.7,6.4c4.9,1.9,9.6,4.4,14,7.3c3.5,2.2,9.9,5.7,11.6,9.6c0.6,1.5,3,2.4,4.5,1.8
			c16.7-5.9,29-20.6,40.5-33.3C568.5,386.5,562.9,380.8,559.4,384.7z"/>
	</g>
</g>
<g>
	<g>
		<path d="M597,366.2c-5-2.1-5.6-10.7-5.3-15.3c0.5-5.8,3.5-11.3,8.5-14.4c9.5-5.8,22.1-4.5,32.5-7.8c-1.7-1.3-3.4-2.6-5.1-3.9
			c0.8,11.6,1.1,27.1-8,35.9c-5.1,4.9-20.6,11.2-25.3,2.9c-2.5-4.5-9.5-0.5-6.9,4c6.9,12.2,25.4,8,34.8,1.3
			c13.4-9.6,14.4-29.1,13.4-44.1c-0.2-2.5-2.4-4.7-5.1-3.9c-13.2,4.2-30.2,2-40.2,13.4c-5,5.7-7.2,13.5-6.6,21
			c0.5,6.3,2.7,15,9.2,17.8C597.7,375.1,601.7,368.2,597,366.2L597,366.2z"/>
	</g>
</g>
<g>
	<g>
		<path d="M33,272.6c2.1,7.6,14.6,3.5,19.4,1.8c6.9-2.5,14.5-7.4,9.1-15.5c-2.5-3.8-6.9-6.4-10.9-8.4c-2.9-1.4-6-3.4-9-1.6
			c-7.3,4.4-9.5,15-8.8,22.7c0.5,5.1,8.5,5.1,8,0c-0.4-4.5-0.1-9.1,2.5-13c0.6-1,1.6-1.7,2.3-2.7c0.5-0.8,0.3-0.3,0.6-0.5
			c-1,0.1-2.1,0.3-3.1,0.4c3.3,1.3,6.7,3,9.5,5.2c0.9,0.7,2.6,1.9,2.8,3.2c0.1,0.4,0.8-1.1,0,0.1c-0.2,0.3-0.7,0.5-1,0.6
			c-2.6,1.5-5.5,2.4-8.4,3.1c-1.3,0.3-2.6,0.6-4,0.8c-0.4,0-1.8-0.1-2.1,0.1c-1.3,0.7-0.4-3.3,1,1.6C39.3,265.6,31.6,267.7,33,272.6
			z"/>
	</g>
</g>
<g>
	<path stroke="#000000" stroke-width="5.1824" stroke-miterlimit="10" d="M47,299.3c14.9,14.8,38,6.1,45.2-21.3
		c2-7.5-4.6-14.1-6.6-6.5c-5.5,21-25,37.2-36.7,25.7C44.6,292.9,42.8,295.1,47,299.3L47,299.3z"/>
</g>
<g>
	<g>
		<g>
			<path d="M301.2,441c-8.1,0-17.9,1.1-24.4,6.3c-8.3,6.5-5.1,17.8,1.9,24.1c12.1,11,32.9-0.2,35.6-14.9
				c1.9-10.5-7.8-14.9-16.6-15.4c-5.1-0.3-5.1,7.7,0,8c6.2,0.4,11,2.6,7.6,9c-2.7,5.1-8.6,9.6-14.4,9.9c-5.5,0.3-14.4-7.5-10.4-13.2
				c3.8-5.4,14.8-5.6,20.7-5.7C306.4,448.9,306.4,440.9,301.2,441L301.2,441z"/>
		</g>
	</g>
	<g>
		<g>
			<path d="M428,414.1c-8.1,0-17.9,1.1-24.4,6.3c-8.3,6.5-5.1,17.8,1.9,24.1c12.1,11,32.9-0.2,35.6-14.9
				c1.9-10.5-7.8-14.9-16.6-15.4c-5.1-0.3-5.1,7.7,0,8c6.1,0.4,11,2.6,7.6,9c-2.7,5.1-8.6,9.6-14.4,9.9c-5.5,0.3-14.4-7.5-10.4-13.2
				c3.8-5.4,14.8-5.6,20.7-5.7C433.2,422.1,433.2,414.1,428,414.1L428,414.1z"/>
		</g>
	</g>
	<g>
		<g>
			<path d="M364.5,437.5c-7.9,0-17.2,0.5-24.3,4.3c-8.1,4.4-6.9,12.9-0.7,18.5c6.2,5.6,15.3,6.1,22.9,3.4c6-2.1,13.4-6.4,15.3-13.1
				c2.9-10.2-9.5-12.9-16.9-13.2c-5.1-0.2-5.1,7.8,0,8c2.5,0.1,7.4,0.1,9.1,2.2c0.4,0.5-0.2,1.7-1.3,3c-3.7,4.5-10.7,7.1-16.4,6.7
				c-3.4-0.2-14.2-5.3-8.1-8.6c5.8-3.1,13.8-3.2,20.2-3.2C369.7,445.5,369.7,437.5,364.5,437.5L364.5,437.5z"/>
		</g>
	</g>
	<g>
		<g>
			<path d="M373.4,469.5c-8,0.1-17.7,1.3-23.9,6.8c-7.7,6.9-4.6,18.6,2.2,25.1c12.4,11.8,32-1.5,34.4-15.9
				c1.7-10.4-6.9-15.4-16.1-16c-5.1-0.3-5.1,7.7,0,8c6.1,0.4,10.1,3.2,7.5,9.4c-2.2,5.3-7.8,10.8-13.8,11.2
				c-6.3,0.5-13.8-8.9-9.9-14.6c3.7-5.4,13.8-5.9,19.6-5.9C378.6,477.5,378.6,469.5,373.4,469.5L373.4,469.5z"/>
		</g>
	</g>
	<g>
		<g>
			<path d="M491.5,413.2c-8,0.1-17.7,1.3-23.9,6.9c-7.7,6.9-4.5,18.6,2.2,25.1c12.4,11.8,32-1.5,34.4-15.9
				c1.7-10.4-6.9-15.4-16.1-16c-5.1-0.3-5.1,7.7,0,8c6.1,0.4,10.1,3.2,7.5,9.4c-2.2,5.3-7.8,10.8-13.8,11.2
				c-6.3,0.5-13.8-8.9-9.9-14.6c3.7-5.4,13.8-5.9,19.6-5.9C496.6,421.2,496.6,413.2,491.5,413.2L491.5,413.2z"/>
		</g>
	</g>
	<g>
		<g>
			<path d="M453.9,453.7c-14.8,0-31.8,1.2-45.1,8.4c-5.7,3.1-10.7,8.1-11.1,14.9c-0.4,7.9,5.1,15.7,10.8,20.7
				c11.3,9.8,27,10.4,40.4,5.1c11.2-4.4,24-13.3,27.3-25.6c4.9-17.9-16.5-22.8-29.6-23.4c-5.1-0.2-5.1,7.8,0,8
				c7.1,0.3,24.2,1.6,22.1,12.5c-1.7,9.1-11.8,16-19.5,19.7c-10,4.9-22.6,6.4-32.4,0.1c-4.9-3.1-10.2-8.9-11.1-14.9
				c-0.7-4.9,3.1-8,7-10.1c12-6.4,27.7-7.2,41-7.3C459.1,461.6,459.1,453.6,453.9,453.7L453.9,453.7z"/>
		</g>
	</g>
</g>
<g>
	<g>
		<g>
			<path d="M215,135c-3.9,8.6,7.7,13.6,14.4,13.8c8.4,0.3,10.5-6,12.5-12.8c1.9-6.3,3.1-18.3-6.7-18.4
				C226.6,117.6,218.9,128.5,215,135c-2.7,4.4,4.3,8.4,6.9,4c2.7-4.5,6.3-9.3,10.7-12.2c1.3-0.9,2.2-1.7,2.7-0.9
				c0.9,1.5-0.2,4.8-0.6,6.3c-0.5,2.2-1.3,4.3-2.1,6.4c-0.2,0.5-0.4,1-0.6,1.6c-0.2,0.5-0.7,0.9-0.2,0.6c0.5-0.3-1.5,0-1.8,0
				c-1.2,0-2.4-0.3-3.6-0.6c-1-0.3-2-0.7-2.9-1.3c-1.7-1.1-0.7-1.4-1.4,0.2C224,134.4,217.1,130.4,215,135z"/>
		</g>
	</g>
	<g>
		<g>
			<path d="M180.9,123.5c-4,8.8,8.5,13.4,15.1,13.8c3.9,0.2,8.2-0.8,10-4.5c1.1-2.3,1.8-4.9,2.5-7.4c1.7-6.4,3-18.8-6.7-19.2
				C192.9,105.7,184.9,116.9,180.9,123.5c-2.7,4.4,4.2,8.4,6.9,4c2.8-4.6,6.6-9.6,11.3-12.4c1.7-1,2.2-1.5,2.6,0
				c0.5,2.1-0.1,4.8-0.6,6.9c-0.5,2.1-1.1,4.2-1.8,6.2c-0.2,0.6-0.6,1.3-0.7,1.9c-0.4,1.4,0.6-0.8,0.3-1c-0.2-0.1-2.9,0.2-3.1,0.2
				c-1.1-0.1-2.2-0.4-3.3-0.7c-1.1-0.4-2.3-0.8-3.2-1.4c-1.8-1.2-0.6-1.2-1.3,0.5C190,122.9,183.1,118.8,180.9,123.5z"/>
		</g>
	</g>
</g>
<ellipse transform="matrix(0.342 -0.9397 0.9397 0.342 -106.934 273.2711)" fill="none" stroke="#000000" stroke-width="8" stroke-miterlimit="10" cx="141.7" cy="213" rx="21.6" ry="16.4"/>
<ellipse transform="matrix(0.342 -0.9397 0.9397 0.342 -95.6658 329.2946)" fill="none" stroke="#000000" stroke-width="8" stroke-miterlimit="10" cx="187.3" cy="233" rx="21.6" ry="16.4"/>
<ellipse transform="matrix(0.342 -0.9397 0.9397 0.342 -102.4608 266.1817)" cx="138.8" cy="206.3" rx="10.5" ry="8.3"/>
<ellipse transform="matrix(0.342 -0.9397 0.9397 0.342 -92.6065 322.5841)" cx="184" cy="227.4" rx="10.5" ry="8.3"/>
</svg>
