<?xml version="1.0" encoding="utf-8"?>
<!-- Generator: Adobe Illustrator 19.2.1, SVG Export Plug-In . SVG Version: 6.00 Build 0)  -->
<svg version="1.1" id="Layer_1" xmlns="http://www.w3.org/2000/svg" xmlns:xlink="http://www.w3.org/1999/xlink" x="0px" y="0px"
	 viewBox="0 0 640 920" enable-background="new 0 0 640 920" xml:space="preserve">
<path fill="none" stroke="#000000" stroke-width="8" stroke-miterlimit="10" d="M529.9,316.9c-68.3-69.8-156-76.9-194.8-78.3v-0.3
	c0,0-1.9,0-5.3,0.1c-3.4-0.1-5.3-0.1-5.3-0.1v0.3c-38.8,1.5-129.8,5.5-194.8,78.3C40,417.3,72.8,557.4,120.5,605
	c46,46,104,96.3,204,97.5v0.1c1.8,0,3.5-0.1,5.3,0c1.8,0,3.5,0.1,5.3,0v-0.1c100.1-1.2,158-51.5,204-97.5
	C586.7,557.4,628.2,417.3,529.9,316.9z"/>
<g>
	<defs>
		<path id="SVGID_1_" d="M529.9,316.9c-68.3-69.8-156-76.9-194.8-78.3v-0.3c0,0-1.9,0-5.3,0.1c-3.4-0.1-5.3-0.1-5.3-0.1v0.3
			c-38.8,1.5-129.8,5.5-194.8,78.3C40,417.3,72.8,557.4,120.5,605c46,46,104,96.3,204,97.5v0.1c1.8,0,3.5-0.1,5.3,0
			c1.8,0,3.5,0.1,5.3,0v-0.1c100.1-1.2,158-51.5,204-97.5C586.7,557.4,628.2,417.3,529.9,316.9z"/>
	</defs>
	<clipPath id="SVGID_2_">
		<use xlink:href="#SVGID_1_"  overflow="visible"/>
	</clipPath>
	<path clip-path="url(#SVGID_2_)" fill="none" stroke="#000000" stroke-width="8" stroke-miterlimit="10" d="M278.8,529.2
		c-80.8,12.5-142,54-150.5,104.8c48.1,35.9,117.1,67.5,196.2,68.5v0.1c1.8,0,3.5-0.1,5.3,0c1.8,0,3.5,0.1,5.3,0v-0.1
		c79.1-1,148-32.6,196.2-68.5c-8.4-50.8-69.6-92.3-150.5-104.8"/>
	<g clip-path="url(#SVGID_2_)">
		<polygon fill="none" stroke="#000000" stroke-width="8" stroke-miterlimit="10" points="218.2,250.1 270.5,347.7 264.1,241.9 		
			"/>
		<path fill="none" stroke="#000000" stroke-width="8" stroke-miterlimit="10" d="M277.6,242.3l48.5,98.9L375,240.4l-34.5-31.6
			c0,0-60.2,16-62.9,19.2C274.8,231.3,277.6,242.3,277.6,242.3z"/>
		<polygon fill="none" stroke="#000000" stroke-width="8" stroke-miterlimit="10" points="431.8,246.5 382,347.7 385.9,238.3 		"/>
		<polygon fill="none" stroke="#000000" stroke-width="8" stroke-miterlimit="10" points="586.6,380.6 511.9,417.7 604.5,450.6 		
			"/>
		<polygon fill="none" stroke="#000000" stroke-width="8" stroke-miterlimit="10" points="593.2,490.4 498.9,460.9 578.7,567 		"/>
		<polygon fill="none" stroke="#000000" stroke-width="8" stroke-miterlimit="10" points="77.3,380.6 152,417.7 59.4,450.6 		"/>
		<polygon fill="none" stroke="#000000" stroke-width="8" stroke-miterlimit="10" points="70.6,490.4 165,460.9 85.1,567 		"/>
	</g>
	<use xlink:href="#SVGID_1_"  overflow="visible" fill="none" stroke="#000000" stroke-width="8" stroke-miterlimit="10"/>
</g>
<circle fill="none" stroke="#000000" stroke-width="8" stroke-miterlimit="10" cx="246.3" cy="427.7" r="38.9"/>
<ellipse stroke="#000000" stroke-width="11.073" stroke-miterlimit="10" cx="264.4" cy="414.4" rx="14.3" ry="14.3"/>
<circle fill="none" stroke="#000000" stroke-width="8" stroke-miterlimit="10" cx="408.4" cy="427.7" r="38.9"/>
<path stroke="#000000" stroke-width="11.073" stroke-miterlimit="10" d="M440.8,414.4c0,7.9-6.4,14.3-14.3,14.3
	c-7.9,0-14.3-6.4-14.3-14.3c0-7.9,6.4-14.3,14.3-14.3C434.5,400.2,440.8,406.6,440.8,414.4z"/>
<g>
	<g>
		<path fill="none" stroke="#000000" stroke-width="8" stroke-miterlimit="10" d="M326.6,635.2c-61.7,0-71.6-53-71.7-53.5l6.8-1.2
			c0.3,2,9.1,47.8,64.9,47.8c23.5,0,41.6-8.1,53.7-24c9-11.9,11.2-23.7,11.2-23.8l6.8,1.2C398.1,582.2,388.2,635.2,326.6,635.2z"/>
	</g>
</g>
<path fill="none" stroke="#000000" stroke-width="8" stroke-miterlimit="10" d="M381.3,516.4c-8.8-32.6-51.5-32.6-51.5-32.6
	s-42.7,0-51.5,32.6c-6,22.1,27.6,50.6,51.5,50.6C353.6,567,387.2,538.5,381.3,516.4z"/>
<g>
	<g>
		<path fill="none" stroke="#000000" stroke-width="8" stroke-miterlimit="10" d="M93.7,371.7c-26.6-15.8-44.4-44.8-44.4-77.9
			c0-50,40.5-90.5,90.5-90.5c36.4,0,67.8,21.5,82.2,52.5"/>
		<path fill="none" stroke="#000000" stroke-width="8" stroke-miterlimit="10" d="M108.8,344.1c-16.9-10.4-28.2-29.1-28.2-50.4
			c0-32.6,26.4-59.1,59.1-59.1c23.5,0,43.7,13.7,53.3,33.5"/>
	</g>
	<g>
		<path fill="none" stroke="#000000" stroke-width="8" stroke-miterlimit="10" d="M429.3,254.6c14.6-30.4,45.7-51.4,81.6-51.4
			c50,0,90.5,40.5,90.5,90.5c0,29.3-13.9,55.3-35.5,71.9"/>
		<path fill="none" stroke="#000000" stroke-width="8" stroke-miterlimit="10" d="M458.5,266.3c9.9-18.8,29.6-31.6,52.3-31.6
			c32.6,0,59.1,26.5,59.1,59.1c0,18.1-8.2,34.4-21.1,45.2"/>
	</g>
</g>
</svg>
