<svg id="Layer_1" data-name="Layer 1" xmlns="http://www.w3.org/2000/svg" viewBox="0 0 594.63 490.89"><defs><style>.cls-1,.cls-2{fill:none;stroke:#000;stroke-miterlimit:10;}.cls-1{stroke-width:5.98px;}.cls-2{stroke-width:7px;}</style></defs><title>unicorn</title><path d="M422.6,455.9c2-22.8,33.9-25.1,51.1-23.5,9.2,0.9,20.2,2.8,27.7,8.6,5.1,4,8.8,9.9,12.2,15.4,10.2,16.8,18,35,27.4,52.3,8.7,16,18.6,33.1,33.7,43.8,7.1,5,15.7,8.1,24.5,7.3,11-.9,20.4-6.7,28.7-13.6-2.3-.9-4.6-1.9-6.8-2.8-0.3,18.6-17.9,25.7-34,27-17.3,1.4-35.6-.9-48.3-13.6-6.2-6.2-11.4-13.3-17.4-19.6a113.68,113.68,0,0,0-21.9-18.5c-14-8.7-29.8-13.3-44.4-20.7-7.5-3.8-14.5-8.3-20-14.7-7-8-10.5-18.2-12.4-28.5-0.9-5.1-8.6-2.9-7.7,2.1,3.5,18.9,13,34.5,29.6,44.5,15.1,9.1,32.5,13.5,47.8,22.4a103.74,103.74,0,0,1,24.3,20c6.5,7,12.1,14.9,19.3,21.3,14.3,12.7,35,15.2,53.5,13.2,20-2.2,39.4-12.3,39.8-34.8,0.1-3.7-4.3-4.9-6.8-2.8-7,5.8-15.5,11.1-24.8,11.3-7.5.2-14.4-2.9-20.2-7.5-15-11.8-24.5-30.4-33.1-47-8.8-16.9-16.3-34.9-27.1-50.6-4-5.8-8.6-11.4-14.9-14.8-9.4-5-20.4-7.1-30.9-7.8-22.2-1.4-54,4.8-56.4,31.7-1,5.1,7,5,7.5-.1h0Z" transform="translate(-34.67 -176.42)"/><path d="M237.9,292.3a70.41,70.41,0,0,1,17.6-2.4c5.7,0.1,11.1,2.1,16.8,2.4,2.4,0.1,4.8-2.7,3.9-5.1-10.5-26.8-33.4-48.9-61.8-55.6-2.3-.5-5.3,1.2-5.1,3.9,0.9,10.3,1.8,20.5,2.7,30.8a4.21,4.21,0,0,0,2.9,3.9c4.8,1.6,10.4,3.2,14.1,6.9,3.1,3.1,3.6,7.3,3.8,11.4,0.2,5.1,8.2,5.2,8,0-0.2-6-1.3-11.9-5.5-16.5-4.7-5.1-11.9-7.5-18.3-9.6,1,1.3,2,2.6,2.9,3.9-0.9-10.3-1.8-20.5-2.7-30.8l-5.1,3.9c25.5,6,46.7,25.9,56.2,50l3.9-5.1c-6.3-.4-12.2-2.5-18.6-2.4a82.36,82.36,0,0,0-17.9,2.7C230.7,285.8,232.9,293.5,237.9,292.3Z" transform="translate(-34.67 -176.42)"/><path d="M244.1,311.5c-4.9,23.7-12.5,48.6-11.1,73.1,0.5,9.2,2.8,18.5,8.5,25.9,6.4,8.3,16.1,13,26.1,15.3a106.14,106.14,0,0,0,23.8,2.3c5.5,0,11-.4,16.6-0.7,5.2-.3,10.7,0,15.8-0.8,3.7-.6,3.5-5.6,1-7.3-9.2-6.3-20-9.2-30.6-12-9.2-2.5-20.3-4.8-26.7-12.5-6.1-7.3-4.7-15.8-2.9-24.3,2.2-10.6,5.1-20.9,7.7-31.4,1.3-5,2.5-10.1,3.4-15.2,0.5-3.1,1.2-6.8.2-9.9a4,4,0,0,0-3.9-2.9c-7.4.3-15.9,0-23-2.2-4.9-1.6-7,6.2-2.1,7.7,7.7,2.5,17,2.8,25.1,2.5-1.3-1-2.6-2-3.9-2.9,0.6,1.7-.1,5.3-0.5,7.7-0.9,4.8-2.1,9.6-3.3,14.3-2.8,10.9-5.9,21.8-8,32.8-1.7,9.1-2.4,17.7,2.8,25.9,5.6,8.9,15.5,13.1,25.2,16,12.4,3.8,25.6,5.9,36.5,13.4,0.3-2.4.6-4.9,1-7.3-4.1.6-8.6,0.3-12.8,0.5-4.8.3-9.7,0.6-14.5,0.7a112.36,112.36,0,0,1-20.9-1.3c-9.2-1.6-18.6-4.7-24.8-12-12-13.9-8.1-36.5-5.2-52.8,2.4-13.5,5.5-26.9,8.2-40.4C252.9,308.6,245.2,306.5,244.1,311.5Z" transform="translate(-34.67 -176.42)"/><path d="M184.3,253.9c-4.9-15.5-18.9-22.5-33.1-27.8a4,4,0,0,0-4.5,1.8c-7.5,12.7-4.6,26.8,3.1,38.7l5.5-5.5c-17.8-8.5-33.7,6.9-46.3,17.7-7.6,6.6-14.6,12.6-24.9,13.9-12.2,1.5-23.3,2.7-31.6,12.8-13.2,16.1-7.3,38.9,8.7,50.5,13.8,10,32.4,10.4,48.7,9,19.5-1.7,38.5-7,58-9.2l-4-4c0.3,2.3.6,5.2-.3,7.2a40.8,40.8,0,0,1-2.8,4.4c-2.4,3.8-4.9,7.5-7.4,11.2-6.2,9.3-12.5,18.6-18.7,28-5.3,8.1-10.7,16.3-15.1,25-5.4,10.8-8.6,21.7-11.5,33.3-2.9,11.4-8.2,20.7-18.4,27.2-8.2,5.2-17.4,6.3-26.5,9-20.1,5.9-27.9,27.6-28.5,47-0.3,9.2,1.4,19.9,8.5,26.5,8.5,7.9,20.6,6.1,30.4,2.2,1.5-.6,3.2-2,2.9-3.9-2-15.1-3.6-34.7,8.6-46.2s32.3-11.8,47.8-12.1c-1.2-.7-2.3-1.3-3.5-2,6.4,12.2-1.2,23.3-8.7,32.9-9.1,11.6-19,22.7-24.1,36.7-4.8,13.2-4,28.3.2,41.6,4.1,13,13.3,25.7,28.5,21.4,13-3.7,12.6-16.1,9.3-26.9-1.8-6-4.4-11.9-5.3-18.1-1.1-7.4,3.2-15.1,7-21.2,17-26.9,49.1-5.1,70.2,4.1,42,18.3,88.8,13.2,132.8,5.8-1.6-.9-3.3-1.9-4.9-2.8,6,34.2,29.2,68.1,62.6,80.3,10.1,3.7,21.4,4.8,32,4.9,11,0.1,23.1-1,32.8-6.5,11-6.2,13.8-17.7,9.2-29.2-0.8-2.1-2.6-3.4-4.9-2.8-19.9,4.8-43.7,7.8-61.9-3.7-19.7-12.4-23.6-37.8-23.5-59.2l-4,4c12.1,0.4,20,8.4,27.3,17.2s14.5,18.3,25.1,23.3c11.8,5.5,25.1,4.6,37.4,1.6,11.3-2.7,23.9-7.7,31.3-17.2,9.2-11.8,3.7-25-6-34.5a4.17,4.17,0,0,0-5.7,0c-10.4,9.2-25,21.7-40.2,19.1-15.6-2.7-25.9-19.6-33.3-32-0.8,2-1.6,3.9-2.4,5.9,11.5-4.5,20.9-12.1,25.3-23.9,4.1-11,2.9-23.4-.1-34.4-7-25.5-24.4-49.6-47.1-63.4-29.8-18.1-63.5-11.9-96.4-11.8-21.1.1-45.3-4.3-50.2-28.1-2.3-11.3-.8-23.4,1.1-34.7,2.4-14.6,5.8-29.1,8.8-43.6-1.6.9-3.3,1.9-4.9,2.8,7.9,2.6,16.5,3.8,24.4.4,7.3-3.2,12.1-9.6,15.5-16.6a4.08,4.08,0,0,0-.6-4.8c-12.8-14.2-33.4-14.7-50.8-10.6,1.6,0.9,3.3,1.9,4.9,2.8-1.4-5.4-2.6-11.3-6.4-15.6-4.3-4.8-11.1-7.4-16.8-10.2-4.6-2.2-8.7,4.7-4,6.9s11.1,4.4,14.7,8.4c3,3.3,3.7,8.5,4.8,12.6a4,4,0,0,0,4.9,2.8c14.7-3.4,32.2-3.5,43,8.6l-0.6-4.8c-2.6,5.4-5.9,10.8-11.6,13.3-6.2,2.7-13,1.3-19.1-.8a4,4,0,0,0-4.9,2.8c-4.7,23-11.7,46.7-11.2,70.4,0.2,9,1.9,18.4,6.8,26.1,5.1,7.9,13,13.1,21.9,16.1,13.6,4.6,28.4,4.3,42.6,3.5,16.8-1,34.1-2.3,50.9.5,28.8,4.8,51.6,24.2,65.1,49.7,6.2,11.7,10.9,25.2,10.2,38.6-0.7,14-9.1,24.4-22,29.4-2.3.9-3.8,3.5-2.4,5.9,8.8,14.6,20.8,32.8,39,35.8,18,2.9,34.4-10.1,47-21.3h-5.7c7.7,7.6,12.2,17.3,3.5,26-7.9,7.8-19.8,11.5-30.5,13.4-11.4,2-22.8,1.3-32.4-5.7-8.3-6.1-14-15-20.8-22.6-7.9-8.8-17.3-14.9-29.3-15.3a4,4,0,0,0-4,4c-0.1,19.9,3,41.4,16.6,56.9,11.2,12.7,27.9,17.8,44.4,18.1,11.6,0.2,23.3-1.7,34.5-4.4-1.6-.9-3.3-1.9-4.9-2.8,3.2,8.1,2.6,15.6-5.5,20.1-8.5,4.8-19.3,5.5-28.8,5.4s-19.2-1.1-28.3-4.1c-14.3-4.7-26.6-14.6-36.1-26.1a106.24,106.24,0,0,1-22.6-49.2c-0.4-2.3-3-3.1-4.9-2.8-39.7,6.6-82.7,11.9-121.2-2.8-12.7-4.8-24.6-11.7-37.3-16.5-11.2-4.1-24-6.5-35.1-.8-5.8,3-10.3,7.9-13.8,13.3-3.9,6-8.3,14.2-8.7,21.5-0.7,11.9,7.7,22.2,7.7,33.9,0,5.8-4.9,8.7-10.5,8.4-6-.4-9.9-6.9-12.1-11.8-5.4-12.3-6.7-27.7-2.5-40.5,5-15.5,17.1-27.1,26.5-39.9,8.4-11.4,13.2-24.2,6.1-37.6a4,4,0,0,0-3.5-2c-17.8.8-39.6,1.8-53.4,14.9S66.1,551.6,68.5,569c1-1.3,2-2.6,2.9-3.9-7.7,3.1-18.3,5.8-24.3-1.9-5-6.5-5.1-16.2-4.1-23.9,1.2-9.8,4.4-21.7,11.7-28.7,5.8-5.6,14.3-6.5,21.7-8.4,9.6-2.4,18.4-6.7,25.6-13.6,7.5-7.1,11.4-16.1,13.9-26,2.8-11.1,5.8-21.7,11.1-31.9,4.3-8.3,9.5-16.1,14.5-23.9,6.5-10,13.3-19.9,19.9-29.9,2.5-3.8,5-7.5,7.4-11.3a18.78,18.78,0,0,0,2.9-13.7c-0.2-2-1.6-4.3-4-4-15,1.7-29.7,5.3-44.6,7.6-15.3,2.4-32.1,4.2-47.2-.7C61,349.7,48,333.5,54.7,317.1a25.23,25.23,0,0,1,11.5-12.6c5.5-2.8,11.9-3,17.9-3.7a41.64,41.64,0,0,0,21.8-8.9c7.6-5.8,14.4-12.7,22.1-18.3,6.7-4.8,15-9.4,23.3-5.5,3.3,1.6,7.8-1.9,5.5-5.5-6.2-9.4-9.2-20.3-3.1-30.6l-4.5,1.8c11.4,4.3,23.6,9.7,27.5,22.2,1.4,4.9,9.2,2.8,7.6-2.1h0Z" transform="translate(-34.67 -176.42)"/><path d="M183.7,266.4c7.2-28.2,8.7-57.5,18.4-85.1l-6.7,1.8c7.7,6,9.9,17,11.5,26.1,1.9,11,2.3,22.2,2.9,33.4,0.2,4.7.7,9.4,1.2,14.1,0.3,2.9,1.3,7.2-.7,9.7-2.6,3.3-9.1,4.2-12.9,4.7-6.3,1-11.2-.3-13.6-6.7-1.8-4.8-9.5-2.7-7.7,2.1,4.1,11,13,14.2,24.1,12.2,8-1.4,17.6-4.4,19-13.6,0.6-4.1-.1-8.3-0.6-12.4-0.5-4.6-.7-9.2-0.9-13.8a251.92,251.92,0,0,0-3.1-32.4c-1.8-10.2-4.8-22.3-13.4-29-2.4-1.9-5.6-1.3-6.7,1.8-9.6,27.6-11.1,57-18.4,85.1-1.4,4.9,6.3,7,7.6,2h0Z" transform="translate(-34.67 -176.42)"/><path d="M74.8,302.5c14.5-2.4,15,15.9,15.5,26,0.3,6.1.6,12.7-1.4,18.6a15.12,15.12,0,0,1-5.4,7.3c-1.1.8-2.4,1.3-1.5,1.2-4.4.4-10.9-2.6-14.6-4.4-7-3.5-12.8-9.1-14.1-17.1-1-6.1.4-13.1,2.9-18.7,3.3-7.5,11-11.3,18.6-12.9,5-1.1,2.9-8.8-2.1-7.7-17.4,3.7-27.7,17.4-27.8,35.1-0.1,11.7,6.5,21.5,16.5,27.2,5.5,3.2,13.5,6.6,20.1,6.5,5.7-.1,11.3-5.9,13.6-10.7,3.6-7.2,3.6-15.8,3.3-23.7-0.4-8.6-.9-18.5-5.3-26.1s-12.1-9.7-20.4-8.3C67.6,295.6,69.7,303.3,74.8,302.5Z" transform="translate(-34.67 -176.42)"/><path class="cls-1" d="M54.8,345.1c11.4,9.8,18.2,6.3,25.3-16.9,2.3-7.4-3.2-14.4-5.4-7C69.1,339.3,61,339,52.5,331.7c-3.8-3.3-4.4,4.2-.7,7.4Z" transform="translate(-34.67 -176.42)"/><ellipse class="cls-2" cx="137.67" cy="296.13" rx="16.3" ry="12.5" transform="translate(-222.36 147.81) rotate(-70)"/><ellipse class="cls-2" cx="172.34" cy="311.31" rx="16.3" ry="12.5" transform="translate(-213.81 190.37) rotate(-70)"/><ellipse cx="135.56" cy="290.99" rx="8" ry="6.3" transform="translate(-218.91 142.43) rotate(-70)"/><ellipse cx="169.89" cy="307.04" rx="8" ry="6.3" transform="translate(-211.41 185.26) rotate(-70)"/></svg>