<?xml version="1.0" encoding="utf-8"?>
<!-- Generator: Adobe Illustrator 19.2.1, SVG Export Plug-In . SVG Version: 6.00 Build 0)  -->
<svg version="1.1" id="Layer_1" xmlns="http://www.w3.org/2000/svg" xmlns:xlink="http://www.w3.org/1999/xlink" x="0px" y="0px"
	 viewBox="0 0 640 920" enable-background="new 0 0 640 920" xml:space="preserve">
<g>
	<g>
		<path d="M422.6,455.9c2-22.8,33.9-25.1,51.1-23.5c9.2,0.9,20.2,2.8,27.7,8.6c5.1,4,8.8,9.9,12.2,15.4c10.2,16.8,18,35,27.4,52.3
			c8.7,16,18.6,33.1,33.7,43.8c7.1,5,15.7,8.1,24.5,7.3c11-0.9,20.4-6.7,28.7-13.6c-2.3-0.9-4.6-1.9-6.8-2.8
			c-0.3,18.6-17.9,25.7-34,27c-17.3,1.4-35.6-0.9-48.3-13.6c-6.2-6.2-11.4-13.3-17.4-19.6c-6.6-7-13.8-13.4-21.9-18.5
			c-14-8.7-29.8-13.3-44.4-20.7c-7.5-3.8-14.5-8.3-20-14.7c-7-8-10.5-18.2-12.4-28.5c-0.9-5.1-8.6-2.9-7.7,2.1
			c3.5,18.9,13,34.5,29.6,44.5c15.1,9.1,32.5,13.5,47.8,22.4c9.2,5.3,17.1,12.2,24.3,20c6.5,7,12.1,14.9,19.3,21.3
			c14.3,12.7,35,15.2,53.5,13.2c20-2.2,39.4-12.3,39.8-34.8c0.1-3.7-4.3-4.9-6.8-2.8c-7,5.8-15.5,11.1-24.8,11.3
			c-7.5,0.2-14.4-2.9-20.2-7.5c-15-11.8-24.5-30.4-33.1-47c-8.8-16.9-16.3-34.9-27.1-50.6c-4-5.8-8.6-11.4-14.9-14.8
			c-9.4-5-20.4-7.1-30.9-7.8c-22.2-1.4-54,4.8-56.4,31.7C414.1,461.1,422.1,461,422.6,455.9L422.6,455.9z"/>
	</g>
</g>
<g>
	<g>
		<path d="M237.9,292.3c5.8-1.4,11.7-2.5,17.6-2.4c5.7,0.1,11.1,2.1,16.8,2.4c2.4,0.1,4.8-2.7,3.9-5.1
			c-10.5-26.8-33.4-48.9-61.8-55.6c-2.3-0.5-5.3,1.2-5.1,3.9c0.9,10.3,1.8,20.5,2.7,30.8c0.2,1.9,1.1,3.3,2.9,3.9
			c4.8,1.6,10.4,3.2,14.1,6.9c3.1,3.1,3.6,7.3,3.8,11.4c0.2,5.1,8.2,5.2,8,0c-0.2-6-1.3-11.9-5.5-16.5c-4.7-5.1-11.9-7.5-18.3-9.6
			c1,1.3,2,2.6,2.9,3.9c-0.9-10.3-1.8-20.5-2.7-30.8c-1.7,1.3-3.4,2.6-5.1,3.9c25.5,6,46.7,25.9,56.2,50c1.3-1.7,2.6-3.4,3.9-5.1
			c-6.3-0.4-12.2-2.5-18.6-2.4c-6.1,0.1-12.1,1.3-17.9,2.7C230.7,285.8,232.9,293.5,237.9,292.3z"/>
	</g>
</g>
<g>
	<g>
		<path d="M244.1,311.5c-4.9,23.7-12.5,48.6-11.1,73.1c0.5,9.2,2.8,18.5,8.5,25.9c6.4,8.3,16.1,13,26.1,15.3
			c7.8,1.8,15.9,2.3,23.8,2.3c5.5,0,11-0.4,16.6-0.7c5.2-0.3,10.7,0,15.8-0.8c3.7-0.6,3.5-5.6,1-7.3c-9.2-6.3-20-9.2-30.6-12
			c-9.2-2.5-20.3-4.8-26.7-12.5c-6.1-7.3-4.7-15.8-2.9-24.3c2.2-10.6,5.1-20.9,7.7-31.4c1.3-5,2.5-10.1,3.4-15.2
			c0.5-3.1,1.2-6.8,0.2-9.9c-0.5-1.6-2-3-3.9-2.9c-7.4,0.3-15.9,0-23-2.2c-4.9-1.6-7,6.2-2.1,7.7c7.7,2.5,17,2.8,25.1,2.5
			c-1.3-1-2.6-2-3.9-2.9c0.6,1.7-0.1,5.3-0.5,7.7c-0.9,4.8-2.1,9.6-3.3,14.3c-2.8,10.9-5.9,21.8-8,32.8c-1.7,9.1-2.4,17.7,2.8,25.9
			c5.6,8.9,15.5,13.1,25.2,16c12.4,3.8,25.6,5.9,36.5,13.4c0.3-2.4,0.6-4.9,1-7.3c-4.1,0.6-8.6,0.3-12.8,0.5
			c-4.8,0.3-9.7,0.6-14.5,0.7c-7,0.1-14-0.1-20.9-1.3c-9.2-1.6-18.6-4.7-24.8-12c-12-13.9-8.1-36.5-5.2-52.8
			c2.4-13.5,5.5-26.9,8.2-40.4C252.9,308.6,245.2,306.5,244.1,311.5z"/>
	</g>
</g>
<g>
	<g>
		<path d="M184.3,253.9c-4.9-15.5-18.9-22.5-33.1-27.8c-1.6-0.6-3.7,0.4-4.5,1.8c-7.5,12.7-4.6,26.8,3.1,38.7
			c1.8-1.8,3.6-3.6,5.5-5.5c-17.8-8.5-33.7,6.9-46.3,17.7c-7.6,6.6-14.6,12.6-24.9,13.9c-12.2,1.5-23.3,2.7-31.6,12.8
			c-13.2,16.1-7.3,38.9,8.7,50.5c13.8,10,32.4,10.4,48.7,9c19.5-1.7,38.5-7,58-9.2c-1.3-1.3-2.7-2.7-4-4c0.3,2.3,0.6,5.2-0.3,7.2
			c-0.7,1.5-1.9,3-2.8,4.4c-2.4,3.8-4.9,7.5-7.4,11.2c-6.2,9.3-12.5,18.6-18.7,28c-5.3,8.1-10.7,16.3-15.1,25
			c-5.4,10.8-8.6,21.7-11.5,33.3c-2.9,11.4-8.2,20.7-18.4,27.2c-8.2,5.2-17.4,6.3-26.5,9c-20.1,5.9-27.9,27.6-28.5,47
			c-0.3,9.2,1.4,19.9,8.5,26.5c8.5,7.9,20.6,6.1,30.4,2.2c1.5-0.6,3.2-2,2.9-3.9c-2-15.1-3.6-34.7,8.6-46.2
			c12.1-11.4,32.3-11.8,47.8-12.1c-1.2-0.7-2.3-1.3-3.5-2c6.4,12.2-1.2,23.3-8.7,32.9c-9.1,11.6-19,22.7-24.1,36.7
			c-4.8,13.2-4,28.3,0.2,41.6c4.1,13,13.3,25.7,28.5,21.4c13-3.7,12.6-16.1,9.3-26.9c-1.8-6-4.4-11.9-5.3-18.1
			c-1.1-7.4,3.2-15.1,7-21.2c17-26.9,49.1-5.1,70.2,4.1c42,18.3,88.8,13.2,132.8,5.8c-1.6-0.9-3.3-1.9-4.9-2.8
			c6,34.2,29.2,68.1,62.6,80.3c10.1,3.7,21.4,4.8,32,4.9c11,0.1,23.1-1,32.8-6.5c11-6.2,13.8-17.7,9.2-29.2
			c-0.8-2.1-2.6-3.4-4.9-2.8c-19.9,4.8-43.7,7.8-61.9-3.7c-19.7-12.4-23.6-37.8-23.5-59.2c-1.3,1.3-2.7,2.7-4,4
			c12.1,0.4,20,8.4,27.3,17.2c7.3,8.8,14.5,18.3,25.1,23.3c11.8,5.5,25.1,4.6,37.4,1.6c11.3-2.7,23.9-7.7,31.3-17.2
			c9.2-11.8,3.7-25-6-34.5c-1.6-1.6-4-1.4-5.7,0c-10.4,9.2-25,21.7-40.2,19.1c-15.6-2.7-25.9-19.6-33.3-32c-0.8,2-1.6,3.9-2.4,5.9
			c11.5-4.5,20.9-12.1,25.3-23.9c4.1-11,2.9-23.4-0.1-34.4c-7-25.5-24.4-49.6-47.1-63.4c-29.8-18.1-63.5-11.9-96.4-11.8
			c-21.1,0.1-45.3-4.3-50.2-28.1c-2.3-11.3-0.8-23.4,1.1-34.7c2.4-14.6,5.8-29.1,8.8-43.6c-1.6,0.9-3.3,1.9-4.9,2.8
			c7.9,2.6,16.5,3.8,24.4,0.4c7.3-3.2,12.1-9.6,15.5-16.6c0.8-1.7,0.7-3.4-0.6-4.8c-12.8-14.2-33.4-14.7-50.8-10.6
			c1.6,0.9,3.3,1.9,4.9,2.8c-1.4-5.4-2.6-11.3-6.4-15.6c-4.3-4.8-11.1-7.4-16.8-10.2c-4.6-2.2-8.7,4.7-4,6.9
			c4.7,2.3,11.1,4.4,14.7,8.4c3,3.3,3.7,8.5,4.8,12.6c0.6,2.2,2.8,3.3,4.9,2.8c14.7-3.4,32.2-3.5,43,8.6c-0.2-1.6-0.4-3.2-0.6-4.8
			c-2.6,5.4-5.9,10.8-11.6,13.3c-6.2,2.7-13,1.3-19.1-0.8c-2-0.7-4.5,0.8-4.9,2.8c-4.7,23-11.7,46.7-11.2,70.4
			c0.2,9,1.9,18.4,6.8,26.1c5.1,7.9,13,13.1,21.9,16.1c13.6,4.6,28.4,4.3,42.6,3.5c16.8-1,34.1-2.3,50.9,0.5
			c28.8,4.8,51.6,24.2,65.1,49.7c6.2,11.7,10.9,25.2,10.2,38.6c-0.7,14-9.1,24.4-22,29.4c-2.3,0.9-3.8,3.5-2.4,5.9
			c8.8,14.6,20.8,32.8,39,35.8c18,2.9,34.4-10.1,47-21.3c-1.9,0-3.8,0-5.7,0c7.7,7.6,12.2,17.3,3.5,26c-7.9,7.8-19.8,11.5-30.5,13.4
			c-11.4,2-22.8,1.3-32.4-5.7c-8.3-6.1-14-15-20.8-22.6c-7.9-8.8-17.3-14.9-29.3-15.3c-2.2-0.1-4,1.9-4,4
			c-0.1,19.9,3,41.4,16.6,56.9c11.2,12.7,27.9,17.8,44.4,18.1c11.6,0.2,23.3-1.7,34.5-4.4c-1.6-0.9-3.3-1.9-4.9-2.8
			c3.2,8.1,2.6,15.6-5.5,20.1c-8.5,4.8-19.3,5.5-28.8,5.4c-9.5-0.1-19.2-1.1-28.3-4.1c-14.3-4.7-26.6-14.6-36.1-26.1
			c-11.7-14-19.4-31.3-22.6-49.2c-0.4-2.3-3-3.1-4.9-2.8c-39.7,6.6-82.7,11.9-121.2-2.8c-12.7-4.8-24.6-11.7-37.3-16.5
			c-11.2-4.1-24-6.5-35.1-0.8c-5.8,3-10.3,7.9-13.8,13.3c-3.9,6-8.3,14.2-8.7,21.5c-0.7,11.9,7.7,22.2,7.7,33.9
			c0,5.8-4.9,8.7-10.5,8.4c-6-0.4-9.9-6.9-12.1-11.8c-5.4-12.3-6.7-27.7-2.5-40.5c5-15.5,17.1-27.1,26.5-39.9
			c8.4-11.4,13.2-24.2,6.1-37.6c-0.6-1.2-2.1-2-3.5-2C115,503,93.2,504,79.4,517.1c-13.9,13.1-13.3,34.5-10.9,51.9
			c1-1.3,2-2.6,2.9-3.9c-7.7,3.1-18.3,5.8-24.3-1.9c-5-6.5-5.1-16.2-4.1-23.9c1.2-9.8,4.4-21.7,11.7-28.7c5.8-5.6,14.3-6.5,21.7-8.4
			c9.6-2.4,18.4-6.7,25.6-13.6c7.5-7.1,11.4-16.1,13.9-26c2.8-11.1,5.8-21.7,11.1-31.9c4.3-8.3,9.5-16.1,14.5-23.9
			c6.5-10,13.3-19.9,19.9-29.9c2.5-3.8,5-7.5,7.4-11.3c2.8-4.3,3.6-8.5,2.9-13.7c-0.2-2-1.6-4.3-4-4c-15,1.7-29.7,5.3-44.6,7.6
			c-15.3,2.4-32.1,4.2-47.2-0.7C61,349.7,48,333.5,54.7,317.1c2.2-5.3,6.4-10,11.5-12.6c5.5-2.8,11.9-3,17.9-3.7
			c8.5-1,15-3.7,21.8-8.9c7.6-5.8,14.4-12.7,22.1-18.3c6.7-4.8,15-9.4,23.3-5.5c3.3,1.6,7.8-1.9,5.5-5.5c-6.2-9.4-9.2-20.3-3.1-30.6
			c-1.5,0.6-3,1.2-4.5,1.8c11.4,4.3,23.6,9.7,27.5,22.2C178.1,260.9,185.9,258.8,184.3,253.9L184.3,253.9z"/>
	</g>
</g>
<g>
	<g>
		<path d="M183.7,266.4c7.2-28.2,8.7-57.5,18.4-85.1c-2.2,0.6-4.5,1.2-6.7,1.8c7.7,6,9.9,17,11.5,26.1c1.9,11,2.3,22.2,2.9,33.4
			c0.2,4.7,0.7,9.4,1.2,14.1c0.3,2.9,1.3,7.2-0.7,9.7c-2.6,3.3-9.1,4.2-12.9,4.7c-6.3,1-11.2-0.3-13.6-6.7c-1.8-4.8-9.5-2.7-7.7,2.1
			c4.1,11,13,14.2,24.1,12.2c8-1.4,17.6-4.4,19-13.6c0.6-4.1-0.1-8.3-0.6-12.4c-0.5-4.6-0.7-9.2-0.9-13.8
			c-0.5-10.8-1.2-21.7-3.1-32.4c-1.8-10.2-4.8-22.3-13.4-29c-2.4-1.9-5.6-1.3-6.7,1.8c-9.6,27.6-11.1,57-18.4,85.1
			C174.7,269.3,182.4,271.4,183.7,266.4L183.7,266.4z"/>
	</g>
</g>
<g>
	<g>
		<path d="M74.8,302.5c14.5-2.4,15,15.9,15.5,26c0.3,6.1,0.6,12.7-1.4,18.6c-1.1,3.1-2.8,5.3-5.4,7.3c-1.1,0.8-2.4,1.3-1.5,1.2
			c-4.4,0.4-10.9-2.6-14.6-4.4c-7-3.5-12.8-9.1-14.1-17.1c-1-6.1,0.4-13.1,2.9-18.7C59.5,307.9,67.2,304.1,74.8,302.5
			c5-1.1,2.9-8.8-2.1-7.7c-17.4,3.7-27.7,17.4-27.8,35.1c-0.1,11.7,6.5,21.5,16.5,27.2c5.5,3.2,13.5,6.6,20.1,6.5
			c5.7-0.1,11.3-5.9,13.6-10.7c3.6-7.2,3.6-15.8,3.3-23.7c-0.4-8.6-0.9-18.5-5.3-26.1c-4.4-7.7-12.1-9.7-20.4-8.3
			C67.6,295.6,69.7,303.3,74.8,302.5z"/>
	</g>
</g>
<g>
	<path fill="none" stroke="#000000" stroke-width="5.9765" stroke-miterlimit="10" d="M54.8,345.1c11.4,9.8,18.2,6.3,25.3-16.9
		c2.3-7.4-3.2-14.4-5.4-7C69.1,339.3,61,339,52.5,331.7c-3.8-3.3-4.4,4.2-0.7,7.4L54.8,345.1z"/>
</g>
<ellipse transform="matrix(0.342 -0.9397 0.9397 0.342 -187.6638 324.265)" fill="none" stroke="#000000" stroke-width="7" stroke-miterlimit="10" cx="137.7" cy="296.1" rx="16.3" ry="12.5"/>
<ellipse transform="matrix(0.342 -0.9397 0.9397 0.342 -179.1169 366.7584)" fill="none" stroke="#000000" stroke-width="7" stroke-miterlimit="10" cx="172.3" cy="311.3" rx="16.3" ry="12.5"/>
<ellipse transform="matrix(0.342 -0.9397 0.9397 0.342 -184.2709 318.8878)" cx="135.6" cy="291" rx="8" ry="6.3"/>
<ellipse transform="matrix(0.342 -0.9397 0.9397 0.342 -176.7965 361.6686)" cx="169.9" cy="307.1" rx="8" ry="6.3"/>
</svg>
